PathFileType	4	(X/Y/Z)	D:\TRACE\v60_Jaco2_6-2-23\JustBodyDRS_Motion1_2-v60.trc
DataRate	CameraRate	NumFrames	NumMarkers	Units	OrigDataRate	OrigDataStartFrame	OrigNumFrames
100.00	100.00	      24	9	mm	100.00	5216	      6954
Frame#	Time	front left toe			Front right toe			aft left toe			aft right toe			Arm			FL body			FR body			AL Body			AR Body			
		X1	Y1	Z1	X2	Y2	Z2	X3	Y3	Z3	X4	Y4	Z4	X5	Y5	Z5	X6	Y6	Z6	X7	Y7	Z7	X8	Y8	Z8	X9	Y9	Z9	

5216	52.150	-206.43933	7.11715	-212.56894	128.80382	12.02509	-241.30542	-174.96849	49.34111	425.02289	238.88062	30.25669	366.55237	-144.73700	1201.78015	-363.87210	-128.88524	569.69653	-355.84796	30.04249	566.84277	-375.48596	-13.60980	572.77808	581.87946	142.65723	564.99719	565.12164	
5217	52.160	-206.60310	6.97740	-212.54568	126.48818	7.52333	-242.00644	-176.60014	42.96625	425.97964	238.73920	30.38726	366.45111	-145.50470	1201.86194	-363.15997	-130.32590	569.77478	-355.08353	29.45357	566.78247	-375.11157	-14.46471	573.11328	582.95544	141.20741	564.98590	565.42908	
5218	52.170	-206.58461	6.62582	-212.50928	126.83022	5.23583	-241.92274	-178.75383	36.81847	426.46661	238.59361	30.42868	366.45264	-146.18552	1201.78064	-362.75812	-131.82274	569.88855	-354.28391	27.57441	566.68225	-373.87070	-15.79591	573.27142	583.93671	139.78685	564.72125	566.04181	
5219	52.180	-206.39986	6.72338	-212.38264	128.67781	5.99495	-243.06555	-179.66347	34.67950	424.63013	238.51695	30.58990	366.53806	-147.02342	1202.07068	-362.12238	-133.13068	570.33685	-353.59802	26.25890	567.89178	-373.60541	-17.43940	572.95343	584.83130	138.58739	564.83234	567.19983	
5220	52.190	-206.36348	6.82720	-212.76816	128.53072	6.36565	-242.39594	-180.31313	32.76986	425.16046	238.25589	30.84648	366.43842	-148.48300	1202.82617	-361.15265	-134.18130	571.12836	-352.70044	25.03385	568.26508	-372.42679	-18.51953	573.99786	585.45953	137.15170	565.72540	567.73828	
5221	52.200	-206.81845	7.66778	-212.31654	127.84342	6.83079	-242.00317	-179.91411	32.74879	426.30887	237.99678	32.10197	366.72916	-150.40985	1203.84705	-360.18982	-135.50967	571.76459	-351.83148	23.60786	568.35938	-371.37949	-19.63730	575.74744	586.29596	136.01320	567.02118	568.75104	
5222	52.210	-207.57909	11.31422	-211.45291	127.20707	6.39215	-241.39049	-180.04877	31.86479	426.22943	235.85460	35.07621	368.56094	-152.63277	1204.77747	-359.14719	-136.70677	572.01831	-350.78290	22.57175	569.45319	-371.39194	-21.20075	576.60229	586.63959	135.13075	568.15448	568.98798	
5223	52.220	-204.78337	14.90239	-208.38519	127.33900	6.67394	-241.96114	-180.64066	31.83785	426.02872	231.53014	37.84447	372.43799	-154.57529	1205.36987	-358.15341	-138.30510	572.49738	-350.42563	20.67666	569.98260	-370.17639	-21.90756	576.80688	587.64886	133.56839	568.10742	570.22028	
5224	52.230	-202.07355	22.00857	-205.23666	127.37062	6.42639	-242.14590	-180.66510	31.47252	425.88916	227.35539	45.45076	374.64743	-156.91502	1205.54102	-357.46603	-139.28938	572.56506	-349.94205	19.84900	570.17920	-369.80759	-22.67617	577.00983	589.05841	132.45506	568.45728	570.45422	
5225	52.240	-200.36179	31.54220	-204.69447	127.36105	6.04596	-242.18401	-180.63603	31.35208	426.06573	225.02979	54.58405	376.40231	-158.21066	1205.46631	-357.81870	-140.15518	572.60046	-349.53867	19.30841	570.12543	-369.36334	-23.94925	577.26569	588.57928	131.62633	568.80109	570.69678	
5226	52.250	-200.05302	41.88971	-203.89362	127.46250	6.04172	-241.89148	-180.58197	31.26571	426.08429	223.16252	66.29053	375.63254	-159.23643	1204.50806	-357.82288	-140.65042	572.27789	-349.12485	18.26805	569.79718	-368.90860	-25.24895	577.11627	588.75732	130.71016	569.28723	571.91486	
5227	52.260	-202.16124	53.68286	-205.00156	127.56289	6.01878	-241.78073	-180.79770	30.95230	426.14310	223.30046	78.78365	375.10297	-160.55176	1203.33813	-357.48907	-141.37938	571.33405	-348.76581	17.55878	569.46350	-368.42606	-27.01667	576.77954	589.45001	129.11665	569.16510	572.22815	
5228	52.270	-204.69524	65.32794	-204.49545	127.57244	5.89106	-241.66893	-180.87367	30.75619	426.23825	224.84058	92.47526	374.67728	-162.37550	1202.35120	-357.59467	-141.69032	570.72345	-348.43741	17.60767	569.05383	-367.96716	-28.08519	576.52924	590.17755	127.47120	568.93817	572.65240	
5229	52.280	-208.07793	77.67621	-204.41960	128.00784	5.82075	-241.63806	-180.77281	30.57039	426.22516	225.06131	105.32404	375.53928	-164.07735	1201.73291	-357.49435	-142.32339	569.56433	-348.32159	17.32788	568.34521	-367.62198	-29.93501	576.11841	590.36249	126.16302	568.94397	573.07428	
5230	52.290	-210.61902	89.22641	-203.44633	128.37387	5.58475	-241.52759	-180.53543	30.37828	426.24142	223.61983	117.27859	376.59723	-165.86998	1200.81958	-357.51740	-142.09877	568.54675	-348.13699	17.04585	567.64990	-367.06451	-30.90906	576.10278	590.65747	125.22634	569.34985	573.26904	
5231	52.300	-212.83281	100.06380	-202.41560	128.68272	5.48543	-241.68770	-180.24191	30.31751	426.24518	221.91609	128.50027	378.34821	-167.27733	1200.03784	-357.63672	-142.83916	567.64423	-347.96848	16.47804	566.58667	-367.05338	-31.91035	576.18768	590.89008	124.41179	569.59552	573.74060	
5232	52.310	-214.57173	109.80129	-201.51653	129.01746	5.58694	-241.56961	-179.98721	30.32596	426.32571	218.71956	138.63641	379.70374	-168.86949	1198.99500	-357.94809	-143.02003	566.55731	-347.79193	16.71248	566.12561	-366.56766	-32.61358	576.27954	591.39850	123.36944	570.12225	574.05762	
5233	52.320	-215.90382	118.22784	-200.56032	129.50957	5.69442	-241.45560	-179.85771	30.27837	426.35117	215.96925	147.62794	380.92911	-170.17290	1197.50317	-358.44327	-143.29694	565.84082	-347.27225	16.20306	565.74341	-366.27402	-33.92349	576.46094	591.74969	122.24089	570.57635	574.44647	
5234	52.330	-217.72842	125.30524	-199.65346	129.73341	5.58387	-241.41577	-179.79677	30.17613	426.37302	214.42271	154.96655	382.08118	-172.00558	1196.58215	-359.47925	-143.77319	564.94257	-347.15335	15.45457	564.91895	-365.11740	-34.82514	576.71381	591.96851	121.30146	570.91864	575.28497	
5235	52.340	-220.24551	130.42139	-199.05292	130.08017	5.54935	-241.32088	-179.74371	30.10527	426.38483	213.05757	160.02477	383.26501	-173.22707	1195.69666	-360.18970	-143.32430	563.83258	-346.66632	15.49451	564.43542	-365.40973	-35.76696	576.83405	592.26227	120.20373	571.36212	575.81201	
5236	52.350	-223.35728	133.27586	-198.21378	130.45276	5.59613	-241.19423	-179.47258	30.06222	426.30533	211.48033	162.55679	384.48508	-174.92245	1194.57263	-360.58316	-144.11768	563.28534	-346.80011	15.11164	563.92242	-365.02356	-36.68473	577.15729	592.26263	119.08131	571.87097	576.11597	
5237	52.360	-226.68404	132.75008	-196.88580	130.73558	5.65600	-241.10573	-179.05153	30.18292	426.22308	211.17635	163.00201	385.36661	-176.41971	1194.29565	-360.53201	-144.00333	562.92041	-346.71472	14.94148	563.67828	-364.67352	-37.59621	577.75714	592.74500	118.17632	572.50269	576.47662	
5238	52.370	-229.40161	129.84991	-195.35072	130.93318	5.40219	-241.14627	-178.80269	30.31981	426.22003	209.30119	160.29689	386.47498	-177.87741	1193.69592	-360.92465	-144.24300	562.28149	-346.61490	15.46514	563.73334	-364.91760	-38.65084	578.27240	592.89691	117.40197	573.52747	576.77838	
5239	52.380	-231.66299	125.21330	-194.05286	131.24435	5.38926	-241.18925	-178.41347	30.16308	426.18155	208.19360	156.68642	388.09433	-178.83910	1193.45642	-361.11572	-144.03146	561.70117	-346.31207	15.36931	563.45306	-364.63818	-39.28875	578.52435	593.01184	116.39336	574.05579	577.05103	
